<svg version="1.1" id="Layer_1" xmlns="http://www.w3.org/2000/svg" xmlns:xlink="http://www.w3.org/1999/xlink" x="0px" y="0px"
	 width="100%" viewBox="0 0 1308 779" enable-background="new 0 0 1308 779" xml:space="preserve">
<path fill="#FFFFFF" opacity="1.000000" stroke="none" 
	d="
M853.000000,780.000000 
	C568.700623,780.000000 284.901215,780.000000 1.050906,780.000000 
	C1.050906,520.398315 1.050906,260.796631 1.050906,1.097477 
	C436.882874,1.097477 872.765808,1.097477 1308.824341,1.097477 
	C1308.824341,260.666565 1308.824341,520.333252 1308.824341,780.000000 
	C1157.129761,780.000000 1005.314880,780.000000 853.000000,780.000000 
M307.212311,720.983215 
	C278.879272,714.403992 251.768555,704.475525 226.146683,690.712402 
	C171.116913,661.152649 127.719986,619.385864 96.191429,565.463623 
	C71.283264,522.864075 56.841438,476.905731 52.620159,427.680298 
	C48.827667,383.455078 53.476719,340.160309 67.188271,298.033112 
	C86.168259,239.719208 118.882004,190.350113 165.223068,149.972672 
	C193.635635,125.216515 225.390747,106.043968 260.277832,92.188660 
	C290.732941,80.093513 322.432343,72.965958 355.220428,70.660522 
	C398.913727,67.588310 441.741974,71.806091 483.262512,85.977097 
	C571.993591,116.261101 636.826721,173.842957 678.333679,257.860840 
	C679.041870,259.294373 681.494141,260.676788 683.153992,260.702606 
	C697.482178,260.925354 711.815308,260.830750 726.146973,260.830780 
	C727.374390,260.830780 728.601868,260.830780 730.030029,260.830780 
	C674.974548,115.225449 511.832397,-8.439099 309.134155,29.470379 
	C126.533394,63.621132 -13.323759,232.408386 6.413968,437.036560 
	C24.813398,627.790100 183.487183,771.746948 371.138763,775.952271 
	C564.649536,780.289001 692.163330,645.207336 729.569519,537.964355 
	C714.188354,537.964355 698.861633,538.058167 683.537842,537.886475 
	C680.411316,537.851501 679.018433,538.848999 677.658081,541.691101 
	C653.899170,591.329285 619.875305,632.670288 575.549988,665.176392 
	C518.076843,707.324707 453.436096,728.574219 382.111938,729.084839 
	C362.269348,729.226868 342.503693,727.970398 323.003540,722.981018 
	C323.001221,722.156189 322.892853,721.315430 323.014374,720.509277 
	C323.653198,716.270996 322.153870,714.415955 317.630127,714.933411 
	C314.405548,715.302246 311.104797,715.005005 307.988739,715.005005 
	C307.988739,717.263916 307.988739,719.068542 307.212311,720.983215 
M643.832031,353.499969 
	C643.832031,407.396973 643.832031,461.294006 643.832031,515.510132 
	C656.491516,515.510132 668.469177,515.612305 680.444519,515.488159 
	C703.004761,515.254211 725.334534,513.359741 746.851501,505.841888 
	C780.599121,494.050751 803.065063,471.554993 811.625000,436.466644 
	C816.764709,415.398529 817.001038,394.088562 813.116028,372.623566 
	C808.966492,349.696930 799.840576,329.712616 781.812439,314.382080 
	C771.258484,305.407288 759.133484,299.296692 746.053406,294.989258 
	C724.250305,287.809296 701.672180,286.630676 678.974792,286.498657 
	C667.360718,286.431091 655.746033,286.486816 643.831970,286.486816 
	C643.831970,308.875183 643.831970,330.687561 643.832031,353.499969 
M532.574097,295.829590 
	C498.544769,284.160217 463.287933,286.903564 428.064362,286.465698 
	C428.064362,362.988220 428.064362,439.031097 428.064362,515.513245 
	C440.090393,515.513245 451.889343,515.602783 463.686432,515.494080 
	C486.409088,515.284668 508.902527,513.419312 530.577515,505.854004 
	C564.717590,493.938049 587.105713,471.073395 595.633179,435.562683 
	C600.395935,415.729187 600.589539,395.590515 597.554871,375.514282 
	C594.540710,355.573395 587.335205,337.333984 573.588745,322.102753 
	C562.490906,309.806122 548.568054,301.925171 532.574097,295.829590 
M235.919510,309.419830 
	C213.954315,333.475708 206.820129,361.234589 215.875839,392.631104 
	C227.142075,431.691620 266.013031,458.052124 306.179901,452.737976 
	C341.193512,448.105682 365.487457,428.530090 377.363342,395.002899 
	C393.640594,349.050140 365.026825,297.047668 317.553436,285.969574 
	C286.429169,278.706573 259.290497,286.528503 235.919510,309.419830 
M1153.510864,368.992798 
	C1161.717896,380.519775 1170.053467,391.959015 1178.025513,403.646301 
	C1179.659546,406.041901 1180.697754,409.361969 1180.714355,412.263336 
	C1180.900146,444.747955 1180.831787,477.234070 1180.831787,509.719757 
	C1180.831787,511.507935 1180.831787,513.296082 1180.831787,515.278442 
	C1193.740601,515.278442 1206.169922,515.278442 1219.000854,515.278442 
	C1219.000854,513.255615 1219.000854,511.456665 1219.000854,509.657715 
	C1219.000854,477.005432 1218.937256,444.352783 1219.116211,411.701447 
	C1219.131226,408.963257 1220.175903,405.809906 1221.757446,403.564423 
	C1243.996094,371.988281 1266.416748,340.540253 1288.779297,309.051300 
	C1293.925537,301.804840 1299.020020,294.521698 1304.680664,286.485748 
	C1289.900757,286.485748 1276.124512,286.573730 1262.351074,286.416443 
	C1259.357666,286.382263 1257.578247,287.299377 1255.843140,289.779877 
	C1245.350220,304.780945 1234.663330,319.646423 1224.033081,334.551483 
	C1216.144653,345.612030 1208.244141,356.663879 1200.057495,368.127747 
	C1198.453491,365.957520 1197.175293,364.274750 1195.945557,362.557129 
	C1178.603516,338.335449 1161.289917,314.093414 1143.876587,289.923126 
	C1142.842407,288.487732 1141.037109,286.660583 1139.563477,286.635834 
	C1124.967041,286.390564 1110.365112,286.487396 1094.744263,286.487396 
	C1114.561890,314.298187 1133.836426,341.346954 1153.510864,368.992798 
M900.499756,515.512878 
	C912.462830,515.512878 924.425903,515.512878 936.566772,515.512878 
	C936.566772,503.664154 936.566772,492.274353 936.566772,480.518646 
	C927.697754,480.518646 919.088318,480.518646 910.242310,480.518646 
	C910.242310,427.395172 910.242310,374.638794 910.242310,321.431274 
	C918.702820,321.431274 926.948486,321.431274 935.304016,321.431274 
	C935.304016,309.570129 935.304016,298.161591 935.304016,286.817810 
	C905.470215,286.817810 875.913696,286.817810 846.385376,286.817810 
	C846.385376,298.486267 846.385376,309.767975 846.385376,321.501373 
	C854.855469,321.501373 863.121155,321.501373 871.536133,321.501373 
	C871.536133,374.699310 871.536133,427.442078 871.536133,480.575806 
	C862.622803,480.575806 853.998047,480.575806 845.289673,480.575806 
	C845.289673,492.363373 845.289673,503.757263 845.289673,515.512695 
	C863.551453,515.512695 881.525574,515.512695 900.499756,515.512878 
M1060.500488,321.479279 
	C1069.910156,321.479279 1079.319824,321.479279 1088.609131,321.479279 
	C1088.609131,309.426758 1088.609131,298.053741 1088.609131,286.752502 
	C1043.948853,286.752502 999.679077,286.752502 955.274658,286.752502 
	C955.274658,298.408447 955.274658,309.831055 955.274658,321.713257 
	C971.293762,321.713257 987.043396,321.713257 1003.277100,321.713257 
	C1003.277100,386.553131 1003.277100,450.932404 1003.277100,515.244812 
	C1016.049438,515.244812 1028.322998,515.244812 1041.087402,515.244812 
	C1041.087402,450.622253 1041.087402,386.232056 1041.087402,321.479431 
	C1047.550293,321.479431 1053.525635,321.479431 1060.500488,321.479279 
M278.500244,477.520721 
	C259.263062,477.520721 240.025864,477.520721 220.843491,477.520721 
	C220.843491,490.566284 220.843491,502.809448 220.843491,515.079468 
	C271.178925,515.079468 321.190613,515.079468 371.156616,515.079468 
	C371.156616,502.434082 371.156616,490.191132 371.156616,477.520569 
	C340.390778,477.520569 309.945526,477.520569 278.500244,477.520721 
z"/>
<path fill="#020202" opacity="1.000000" stroke="none" 
	d="
M323.011749,723.876160 
	C342.503693,727.970398 362.269348,729.226868 382.111938,729.084839 
	C453.436096,728.574219 518.076843,707.324707 575.549988,665.176392 
	C619.875305,632.670288 653.899170,591.329285 677.658081,541.691101 
	C679.018433,538.848999 680.411316,537.851501 683.537842,537.886475 
	C698.861633,538.058167 714.188354,537.964355 729.569519,537.964355 
	C692.163330,645.207336 564.649536,780.289001 371.138763,775.952271 
	C183.487183,771.746948 24.813398,627.790100 6.413968,437.036560 
	C-13.323759,232.408386 126.533394,63.621132 309.134155,29.470379 
	C511.832397,-8.439099 674.974548,115.225449 730.030029,260.830780 
	C728.601868,260.830780 727.374390,260.830780 726.146973,260.830780 
	C711.815308,260.830750 697.482178,260.925354 683.153992,260.702606 
	C681.494141,260.676788 679.041870,259.294373 678.333679,257.860840 
	C636.826721,173.842957 571.993591,116.261101 483.262512,85.977097 
	C441.741974,71.806091 398.913727,67.588310 355.220428,70.660522 
	C322.432343,72.965958 290.732941,80.093513 260.277832,92.188660 
	C225.390747,106.043968 193.635635,125.216515 165.223068,149.972672 
	C118.882004,190.350113 86.168259,239.719208 67.188271,298.033112 
	C53.476719,340.160309 48.827667,383.455078 52.620159,427.680298 
	C56.841438,476.905731 71.283264,522.864075 96.191429,565.463623 
	C127.719986,619.385864 171.116913,661.152649 226.146683,690.712402 
	C251.768555,704.475525 278.879272,714.403992 307.969177,721.063232 
	C313.487976,722.054260 318.249847,722.965210 323.011749,723.876160 
z"/>
<path fill="#FF0101" opacity="1.000000" stroke="none" 
	d="
M643.832031,352.999939 
	C643.831970,330.687561 643.831970,308.875183 643.831970,286.486816 
	C655.746033,286.486816 667.360718,286.431091 678.974792,286.498657 
	C701.672180,286.630676 724.250305,287.809296 746.053406,294.989258 
	C759.133484,299.296692 771.258484,305.407288 781.812439,314.382080 
	C799.840576,329.712616 808.966492,349.696930 813.116028,372.623566 
	C817.001038,394.088562 816.764709,415.398529 811.625000,436.466644 
	C803.065063,471.554993 780.599121,494.050751 746.851501,505.841888 
	C725.334534,513.359741 703.004761,515.254211 680.444519,515.488159 
	C668.469177,515.612305 656.491516,515.510132 643.832031,515.510132 
	C643.832031,461.294006 643.832031,407.396973 643.832031,352.999939 
M771.043396,435.452179 
	C778.376221,415.962341 778.665649,396.066071 774.116333,376.002899 
	C770.565613,360.343842 762.544373,347.441162 749.322693,338.018188 
	C734.980042,327.796295 718.632935,323.923279 701.385864,323.140137 
	C695.003174,322.850311 688.596252,323.093353 682.340698,323.093353 
	C682.340698,375.604919 682.340698,426.827393 682.340698,479.333862 
	C693.850830,478.493134 705.083008,478.570984 715.978943,476.695160 
	C740.816467,472.419067 760.571411,460.563873 771.043396,435.452179 
z"/>
<path fill="#FF0101" opacity="1.000000" stroke="none" 
	d="
M532.942993,295.958832 
	C548.568054,301.925171 562.490906,309.806122 573.588745,322.102753 
	C587.335205,337.333984 594.540710,355.573395 597.554871,375.514282 
	C600.589539,395.590515 600.395935,415.729187 595.633179,435.562683 
	C587.105713,471.073395 564.717590,493.938049 530.577515,505.854004 
	C508.902527,513.419312 486.409088,515.284668 463.686432,515.494080 
	C451.889343,515.602783 440.090393,515.513245 428.064362,515.513245 
	C428.064362,439.031097 428.064362,362.988220 428.064362,286.465698 
	C463.287933,286.903564 498.544769,284.160217 532.942993,295.958832 
M560.706299,394.894104 
	C560.459229,392.242371 560.279053,389.582367 559.954285,386.940216 
	C557.909424,370.307220 552.325623,355.303619 539.811768,343.525848 
	C527.306519,331.756195 512.048218,325.875885 495.340363,324.151184 
	C485.713409,323.157410 475.899872,323.970856 466.084839,323.970856 
	C466.084839,375.466492 466.084839,426.693726 466.084839,479.297089 
	C477.477203,478.486603 488.671997,478.552124 499.554138,476.739960 
	C523.626343,472.731201 543.117371,461.409088 553.696289,438.266266 
	C559.832703,424.842010 561.278748,410.451355 560.706299,394.894104 
z"/>
<path fill="#FF0202" opacity="1.000000" stroke="none" 
	d="
M236.162048,309.162781 
	C259.290497,286.528503 286.429169,278.706573 317.553436,285.969574 
	C365.026825,297.047668 393.640594,349.050140 377.363342,395.002899 
	C365.487457,428.530090 341.193512,448.105682 306.179901,452.737976 
	C266.013031,458.052124 227.142075,431.691620 215.875839,392.631104 
	C206.820129,361.234589 213.954315,333.475708 236.162048,309.162781 
M308.258667,414.000977 
	C322.638824,410.205444 333.033752,401.592865 339.522827,388.214935 
	C350.176758,366.250641 341.593811,339.645966 319.720886,326.915344 
	C299.749115,315.291229 271.603821,321.849792 258.401886,341.204163 
	C247.262329,357.535034 247.101166,378.470642 257.989716,394.743042 
	C268.658600,410.687134 287.715424,418.179565 308.258667,414.000977 
z"/>
<path fill="#FF0101" opacity="1.000000" stroke="none" 
	d="
M1153.310913,368.694275 
	C1133.836426,341.346954 1114.561890,314.298187 1094.744263,286.487396 
	C1110.365112,286.487396 1124.967041,286.390564 1139.563477,286.635834 
	C1141.037109,286.660583 1142.842407,288.487732 1143.876587,289.923126 
	C1161.289917,314.093414 1178.603516,338.335449 1195.945557,362.557129 
	C1197.175293,364.274750 1198.453491,365.957520 1200.057495,368.127747 
	C1208.244141,356.663879 1216.144653,345.612030 1224.033081,334.551483 
	C1234.663330,319.646423 1245.350220,304.780945 1255.843140,289.779877 
	C1257.578247,287.299377 1259.357666,286.382263 1262.351074,286.416443 
	C1276.124512,286.573730 1289.900757,286.485748 1304.680664,286.485748 
	C1299.020020,294.521698 1293.925537,301.804840 1288.779297,309.051300 
	C1266.416748,340.540253 1243.996094,371.988281 1221.757446,403.564423 
	C1220.175903,405.809906 1219.131226,408.963257 1219.116211,411.701447 
	C1218.937256,444.352783 1219.000854,477.005432 1219.000854,509.657715 
	C1219.000854,511.456665 1219.000854,513.255615 1219.000854,515.278442 
	C1206.169922,515.278442 1193.740601,515.278442 1180.831787,515.278442 
	C1180.831787,513.296082 1180.831787,511.507935 1180.831787,509.719757 
	C1180.831787,477.234070 1180.900146,444.747955 1180.714355,412.263336 
	C1180.697754,409.361969 1179.659546,406.041901 1178.025513,403.646301 
	C1170.053467,391.959015 1161.717896,380.519775 1153.310913,368.694275 
z"/>
<path fill="#FF0101" opacity="1.000000" stroke="none" 
	d="
M899.999756,515.512817 
	C881.525574,515.512695 863.551453,515.512695 845.289673,515.512695 
	C845.289673,503.757263 845.289673,492.363373 845.289673,480.575806 
	C853.998047,480.575806 862.622803,480.575806 871.536133,480.575806 
	C871.536133,427.442078 871.536133,374.699310 871.536133,321.501373 
	C863.121155,321.501373 854.855469,321.501373 846.385376,321.501373 
	C846.385376,309.767975 846.385376,298.486267 846.385376,286.817810 
	C875.913696,286.817810 905.470215,286.817810 935.304016,286.817810 
	C935.304016,298.161591 935.304016,309.570129 935.304016,321.431274 
	C926.948486,321.431274 918.702820,321.431274 910.242310,321.431274 
	C910.242310,374.638794 910.242310,427.395172 910.242310,480.518646 
	C919.088318,480.518646 927.697754,480.518646 936.566772,480.518646 
	C936.566772,492.274353 936.566772,503.664154 936.566772,515.512878 
	C924.425903,515.512878 912.462830,515.512878 899.999756,515.512817 
z"/>
<path fill="#FF0000" opacity="1.000000" stroke="none" 
	d="
M1060.000732,321.479370 
	C1053.525635,321.479431 1047.550293,321.479431 1041.087402,321.479431 
	C1041.087402,386.232056 1041.087402,450.622253 1041.087402,515.244812 
	C1028.322998,515.244812 1016.049438,515.244812 1003.277100,515.244812 
	C1003.277100,450.932404 1003.277100,386.553131 1003.277100,321.713257 
	C987.043396,321.713257 971.293762,321.713257 955.274658,321.713257 
	C955.274658,309.831055 955.274658,298.408447 955.274658,286.752502 
	C999.679077,286.752502 1043.948853,286.752502 1088.609131,286.752502 
	C1088.609131,298.053741 1088.609131,309.426758 1088.609131,321.479279 
	C1079.319824,321.479279 1069.910156,321.479279 1060.000732,321.479370 
z"/>
<path fill="#FF0000" opacity="1.000000" stroke="none" 
	d="
M279.000244,477.520630 
	C309.945526,477.520569 340.390778,477.520569 371.156616,477.520569 
	C371.156616,490.191132 371.156616,502.434082 371.156616,515.079468 
	C321.190613,515.079468 271.178925,515.079468 220.843491,515.079468 
	C220.843491,502.809448 220.843491,490.566284 220.843491,477.520721 
	C240.025864,477.520721 259.263062,477.520721 279.000244,477.520630 
z"/>
<path fill="#EDEDED" opacity="1.000000" stroke="none" 
	d="
M323.007629,723.428589 
	C318.249847,722.965210 313.487976,722.054260 308.357422,721.008301 
	C307.988739,719.068542 307.988739,717.263916 307.988739,715.005005 
	C311.104797,715.005005 314.405548,715.302246 317.630127,714.933411 
	C322.153870,714.415955 323.653198,716.270996 323.014374,720.509277 
	C322.892853,721.315430 323.001221,722.156189 323.007629,723.428589 
z"/>
<path fill="#FFFEFE" opacity="1.000000" stroke="none" 
	d="
M770.921875,435.816864 
	C760.571411,460.563873 740.816467,472.419067 715.978943,476.695160 
	C705.083008,478.570984 693.850830,478.493134 682.340698,479.333862 
	C682.340698,426.827393 682.340698,375.604919 682.340698,323.093353 
	C688.596252,323.093353 695.003174,322.850311 701.385864,323.140137 
	C718.632935,323.923279 734.980042,327.796295 749.322693,338.018188 
	C762.544373,347.441162 770.565613,360.343842 774.116333,376.002899 
	C778.665649,396.066071 778.376221,415.962341 770.921875,435.816864 
z"/>
<path fill="#FFFEFE" opacity="1.000000" stroke="none" 
	d="
M560.738037,395.359436 
	C561.278748,410.451355 559.832703,424.842010 553.696289,438.266266 
	C543.117371,461.409088 523.626343,472.731201 499.554138,476.739960 
	C488.671997,478.552124 477.477203,478.486603 466.084839,479.297089 
	C466.084839,426.693726 466.084839,375.466492 466.084839,323.970856 
	C475.899872,323.970856 485.713409,323.157410 495.340363,324.151184 
	C512.048218,325.875885 527.306519,331.756195 539.811768,343.525848 
	C552.325623,355.303619 557.909424,370.307220 559.954285,386.940216 
	C560.279053,389.582367 560.459229,392.242371 560.738037,395.359436 
z"/>
<path fill="#FFFDFD" opacity="1.000000" stroke="none" 
	d="
M307.843658,414.090759 
	C287.715424,418.179565 268.658600,410.687134 257.989716,394.743042 
	C247.101166,378.470642 247.262329,357.535034 258.401886,341.204163 
	C271.603821,321.849792 299.749115,315.291229 319.720886,326.915344 
	C341.593811,339.645966 350.176758,366.250641 339.522827,388.214935 
	C333.033752,401.592865 322.638824,410.205444 307.843658,414.090759 
z"/>
</svg>